# xmcd
#
# Track frame offsets:
#	150
#	18825
#	32500
#	51967
#
# Disc length: 941 seconds
#
# Revision: 0
# Processed by: cddbd v1.4PL0 Copyright (c) Steve Scherf et al.
# Submitted via: audiograbber 1.81.02
#
DISCID=2503ab04
DTITLE=Daryl Hall - Gloryland
DYEAR=1900
DGENRE=
TTITLE0=Gloryland
TTITLE1=Gloryland (Action Mix)
TTITLE2=Gloryland (Emotion Mix)
TTITLE3=In Gloria (Spanish Version)
EXTD=
EXTT0=
EXTT1=
EXTT2=
EXTT3=
PLAYORDER=
